<svg xmlns="http://www.w3.org/2000/svg" viewBox="0 0 96 96">
  <rect width="96" height="96" rx="24" fill="#252aa8"/>
  <path d="M23 76V38.5C23 21.7 34.6 12 48 12s25 9.7 25 26.5V76H23Z" fill="#aebcff"/>
  <path d="M29 72V39.5C29 26 37.3 18.5 48 18.5S67 26 67 39.5V72H29Z" fill="#0e1433"/>
  <path d="M20 71.5c10.3-8.1 19.7-10.7 28-7.7v18.4c-8.9-4.1-18.2-3.2-28 2.8V71.5Z" fill="#fff7d6"/>
  <path d="M76 71.5c-10.3-8.1-19.7-10.7-28-7.7v18.4c8.9-4.1 18.2-3.2 28 2.8V71.5Z" fill="#fff0ad"/>
  <path d="M48 63.8v18.4" stroke="#2838e4" stroke-width="2.4" stroke-linecap="round"/>
  <path d="M26 73.2c5.5-2.3 11.1-2.9 16.9-1.7M26 78c5.3-2 10.6-2.4 16.1-1.2M54 71.5c5.8-1.2 11.4-.6 16.9 1.7M54 76.8c5.5-1.2 10.8-.8 16.1 1.2" stroke="#2838e4" stroke-width="1.4" stroke-linecap="round"/>
  <path d="M50.5 25.5 53.1 34l8.4 2.5-8.4 2.6-2.6 8.4-2.6-8.4-8.4-2.6 8.4-2.5 2.6-8.5Z" fill="#fff7d6"/>
  <path d="M70.5 12 72.1 17.4 77.5 19 72.1 20.6 70.5 26 68.9 20.6 63.5 19 68.9 17.4 70.5 12Z" fill="#ff4984"/>
  <path d="M19 70h58" stroke="#db2457" stroke-width="3" stroke-linecap="round"/>
</svg>
